<?xml version="1.0"?>
<svg xmlns="http://www.w3.org/2000/svg" xmlns:xlink="http://www.w3.org/1999/xlink" xmlns:svgjs="http://svgjs.com/svgjs" version="1.1" width="512" height="512" x="0" y="0" viewBox="0 0 389 389.12" style="enable-background:new 0 0 512 512" xml:space="preserve" class=""><g><path xmlns="http://www.w3.org/2000/svg" d="m20.539062 6.828125h102.402344v102.398437h-102.402344zm0 0" fill="#006494" data-original="#0e65e5" style="" class=""/><path xmlns="http://www.w3.org/2000/svg" d="m122.941406 116.054688h-102.402344c-3.769531 0-6.824218-3.054688-6.824218-6.828126v-102.398437c0-3.773437 3.054687-6.828125 6.824218-6.828125h102.402344c3.769532 0 6.824219 3.054688 6.824219 6.828125v102.398437c0 3.773438-3.054687 6.828126-6.824219 6.828126zm-95.574218-13.65625h88.746093v-88.746094h-88.746093zm0 0" fill="#006494" data-original="#0e65e5" style="" class=""/><path xmlns="http://www.w3.org/2000/svg" d="m20.539062 143.359375h102.402344v102.402344h-102.402344zm0 0" fill="#006494" data-original="#0e65e5" style="" class=""/><path xmlns="http://www.w3.org/2000/svg" d="m122.941406 252.585938h-102.402344c-3.769531 0-6.824218-3.050782-6.824218-6.824219v-102.402344c0-3.773437 3.054687-6.824219 6.824218-6.824219h102.402344c3.769532 0 6.824219 3.050782 6.824219 6.824219v102.402344c0 3.773437-3.054687 6.824219-6.824219 6.824219zm-95.574218-13.652344h88.746093v-88.746094h-88.746093zm0 0" fill="#006494" data-original="#0e65e5" style="" class=""/><path xmlns="http://www.w3.org/2000/svg" d="m20.539062 279.894531h102.402344v102.398438h-102.402344zm0 0" fill="#006494" data-original="#0e65e5" style="" class=""/><path xmlns="http://www.w3.org/2000/svg" d="m122.941406 389.121094h-102.402344c-3.769531 0-6.824218-3.054688-6.824218-6.828125v-102.398438c0-3.773437 3.054687-6.828125 6.824218-6.828125h102.402344c3.769532 0 6.824219 3.054688 6.824219 6.828125v102.398438c0 3.773437-3.054687 6.828125-6.824219 6.828125zm-95.574218-13.65625h88.746093v-88.746094h-88.746093zm0 0" fill="#006494" data-original="#0e65e5" style="" class=""/><path xmlns="http://www.w3.org/2000/svg" d="m6.886719 6.828125h102.398437v102.398437h-102.398437zm0 0" fill="#47c2ff" data-original="#94c1ff" style="" class=""/><path xmlns="http://www.w3.org/2000/svg" d="m109.285156 116.054688h-102.398437c-3.769531 0-6.8281252-3.054688-6.8281252-6.828126v-102.398437c0-3.773437 3.0585942-6.828125 6.8281252-6.828125h102.398437c3.773438 0 6.828125 3.054688 6.828125 6.828125v102.398437c0 3.773438-3.054687 6.828126-6.828125 6.828126zm-95.570312-13.65625h88.746094v-88.746094h-88.746094zm0 0" fill="#006494" data-original="#0e65e5" style="" class=""/><path xmlns="http://www.w3.org/2000/svg" d="m54.671875 88.746094c-1.792969 0-3.53125-.707032-4.824219-2l-13.652344-13.652344c-2.667968-2.667969-2.667968-6.988281 0-9.652344 2.664063-2.667968 6.984376-2.667968 9.652344 0l6.523438 6.519532 16.507812-38.515626c1.480469-3.472656 5.496094-5.089843 8.964844-3.585937 3.460938 1.488281 5.070312 5.5 3.582031 8.960937l-20.480469 47.785157c-.886718 2.089843-2.753906 3.589843-4.980468 4.019531-.429688.082031-.863282.121094-1.292969.121094zm0 0" fill="#006494" data-original="#0e65e5" style="" class=""/><path xmlns="http://www.w3.org/2000/svg" d="m6.886719 143.359375h102.398437v102.402344h-102.398437zm0 0" fill="#47c2ff" data-original="#94c1ff" style="" class=""/><path xmlns="http://www.w3.org/2000/svg" d="m109.285156 252.585938h-102.398437c-3.769531 0-6.8281252-3.050782-6.8281252-6.824219v-102.402344c0-3.773437 3.0585942-6.824219 6.8281252-6.824219h102.398437c3.773438 0 6.828125 3.050782 6.828125 6.824219v102.402344c0 3.773437-3.054687 6.824219-6.828125 6.824219zm-95.570312-13.652344h88.746094v-88.746094h-88.746094zm0 0" fill="#006494" data-original="#0e65e5" style="" class=""/><path xmlns="http://www.w3.org/2000/svg" d="m54.671875 225.28125c-1.792969 0-3.53125-.707031-4.824219-2l-13.652344-13.65625c-2.667968-2.664062-2.667968-6.984375 0-9.652344 2.664063-2.664062 6.984376-2.664062 9.652344 0l6.523438 6.519532 16.507812-38.511719c1.480469-3.472657 5.496094-5.101563 8.964844-3.585938 3.460938 1.484375 5.070312 5.5 3.582031 8.957031l-20.480469 47.789063c-.886718 2.085937-2.753906 3.585937-4.980468 4.019531-.429688.082032-.863282.121094-1.292969.121094zm0 0" fill="#ebf7fe" data-original="#ffffff" style="" class=""/><path xmlns="http://www.w3.org/2000/svg" d="m6.886719 279.894531h102.398437v102.398438h-102.398437zm0 0" fill="#ebf7fe" data-original="#ffffff" style="" class=""/><g xmlns="http://www.w3.org/2000/svg" fill="#0e65e5"><path d="m109.285156 389.121094h-102.398437c-3.769531 0-6.8281252-3.054688-6.8281252-6.828125v-102.398438c0-3.773437 3.0585942-6.828125 6.8281252-6.828125h102.398437c3.773438 0 6.828125 3.054688 6.828125 6.828125v102.398438c0 3.773437-3.054687 6.828125-6.828125 6.828125zm-95.570312-13.65625h88.746094v-88.746094h-88.746094zm0 0" fill="#006494" data-original="#0e65e5" style="" class=""/><path d="m355.046875 20.480469h-204.800781c-3.769532 0-6.824219-3.054688-6.824219-6.828125 0-3.773438 3.054687-6.824219 6.824219-6.824219h204.800781c3.769531 0 6.828125 3.050781 6.828125 6.824219 0 3.773437-3.058594 6.828125-6.828125 6.828125zm0 0" fill="#006494" data-original="#0e65e5" style="" class=""/><path d="m286.78125 68.265625h-136.535156c-3.769532 0-6.824219-3.050781-6.824219-6.824219 0-3.773437 3.054687-6.828125 6.824219-6.828125h136.535156c3.769531 0 6.824219 3.054688 6.824219 6.828125 0 3.773438-3.054688 6.824219-6.824219 6.824219zm0 0" fill="#006494" data-original="#0e65e5" style="" class=""/><path d="m279.953125 157.011719h-129.707031c-3.769532 0-6.824219-3.050781-6.824219-6.824219s3.054687-6.828125 6.824219-6.828125h129.707031c3.769531 0 6.828125 3.054687 6.828125 6.828125s-3.058594 6.824219-6.828125 6.824219zm0 0" fill="#006494" data-original="#0e65e5" style="" class=""/><path d="m368.699219 204.800781h-218.453125c-3.769532 0-6.824219-3.054687-6.824219-6.828125 0-3.773437 3.054687-6.824218 6.824219-6.824218h218.453125c3.769531 0 6.828125 3.050781 6.828125 6.824218 0 3.773438-3.058594 6.828125-6.828125 6.828125zm0 0" fill="#006494" data-original="#0e65e5" style="" class=""/><path d="m341.394531 293.546875h-27.308593c-3.769532 0-6.824219-3.054687-6.824219-6.828125s3.054687-6.824219 6.824219-6.824219h27.308593c3.769531 0 6.824219 3.050781 6.824219 6.824219s-3.054688 6.828125-6.824219 6.828125zm-54.613281 0h-27.308594c-3.769531 0-6.824218-3.054687-6.824218-6.828125s3.054687-6.824219 6.824218-6.824219h27.308594c3.769531 0 6.824219 3.050781 6.824219 6.824219s-3.054688 6.828125-6.824219 6.828125zm-54.613281 0h-27.308594c-3.769531 0-6.824219-3.054687-6.824219-6.828125s3.054688-6.824219 6.824219-6.824219h27.308594c3.769531 0 6.824219 3.050781 6.824219 6.824219s-3.054688 6.828125-6.824219 6.828125zm-54.613281 0h-27.308594c-3.769532 0-6.824219-3.054687-6.824219-6.828125s3.054687-6.824219 6.824219-6.824219h27.308594c3.769531 0 6.824218 3.050781 6.824218 6.824219s-3.054687 6.828125-6.824218 6.828125zm0 0" fill="#006494" data-original="#0e65e5" style="" class=""/><path d="m273.125 341.332031h-13.652344c-3.769531 0-6.824218-3.050781-6.824218-6.824219 0-3.773437 3.054687-6.828124 6.824218-6.828124h13.652344c3.773438 0 6.828125 3.054687 6.828125 6.828124 0 3.773438-3.054687 6.824219-6.828125 6.824219zm-40.957031 0h-27.308594c-3.769531 0-6.824219-3.050781-6.824219-6.824219 0-3.773437 3.054688-6.828124 6.824219-6.828124h27.308594c3.769531 0 6.824219 3.054687 6.824219 6.828124 0 3.773438-3.054688 6.824219-6.824219 6.824219zm-54.613281 0h-27.308594c-3.769532 0-6.824219-3.050781-6.824219-6.824219 0-3.773437 3.054687-6.828124 6.824219-6.828124h27.308594c3.769531 0 6.824218 3.054687 6.824218 6.828124 0 3.773438-3.054687 6.824219-6.824218 6.824219zm0 0" fill="#006494" data-original="#0e65e5" style="" class=""/><path d="m327.738281 81.921875c-3.769531 0-6.824219-3.054687-6.824219-6.828125v-27.308594c0-3.773437 3.054688-6.824218 6.824219-6.824218 3.773438 0 6.828125 3.050781 6.828125 6.824218v27.308594c0 3.773438-3.054687 6.828125-6.828125 6.828125zm0 0" fill="#006494" data-original="#0e65e5" style="" class=""/><path d="m341.394531 68.265625h-27.308593c-3.769532 0-6.824219-3.050781-6.824219-6.824219 0-3.773437 3.054687-6.828125 6.824219-6.828125h27.308593c3.769531 0 6.824219 3.054688 6.824219 6.828125 0 3.773438-3.054688 6.824219-6.824219 6.824219zm0 0" fill="#006494" data-original="#0e65e5" style="" class=""/></g></g></svg>
