<?xml version="1.0"?>
<svg xmlns="http://www.w3.org/2000/svg" xmlns:xlink="http://www.w3.org/1999/xlink" xmlns:svgjs="http://svgjs.com/svgjs" version="1.1" width="512" height="512" x="0" y="0" viewBox="0 0 512 512" style="enable-background:new 0 0 512 512" xml:space="preserve" class=""><g>
  <g xmlns="http://www.w3.org/2000/svg">
    <g>
      <g>
        <path d="m202.8,131.9c-11.9,0-21.6,9.7-21.6,21.6v103.7h-59.6v-103.6c0-11.9-9.7-21.6-21.6-21.6h-19.5l70.9-70.9 70.9,70.9h-19.5v-0.1zm81.6,4.2l-117.7-117.8c-8.4-8.4-22.1-8.4-30.6,3.55271e-15l-117.7,117.8c-13.6,13.6-4,36.9 15.3,36.9h46.9v103.7c0,11.9 9.7,21.6 21.6,21.6h98.5c11.9,0 21.6-9.7 21.6-21.6v-103.7h46.9c19.2,0 28.8-23.3 15.2-36.9z" fill="#006494" data-original="#000000" style="" class=""/>
        <path d="m362.6,452.9l-70.9-70.9h19.4c11.9,0 21.6-9.7 21.6-21.6v-103.7h59.6v103.7c0,11.9 9.7,21.6 21.6,21.6h19.4l-70.7,70.9zm117.7-111.9h-46.9v-103.7c0-11.9-9.7-21.6-21.6-21.6h-98.5c-11.9,0-21.6,9.7-21.6,21.6v103.7h-46.9c-19.3,0-28.9,23.3-15.3,36.9l117.7,117.7c8.4,8.4 22.1,8.4 30.6,0l117.7-117.7c13.7-13.6 4.1-36.9-15.2-36.9z" fill="#006494" data-original="#000000" style="" class=""/>
      </g>
    </g>
  </g>
</g></svg>
